<svg id="Capa_1" enable-background="new 0 0 510.508 510.508" height="512" viewBox="0 0 510.508 510.508" width="512" xmlns="http://www.w3.org/2000/svg"><g><path d="m467.553 151.922c-.212-6.166-.914-12.226-2.073-18.146l43.072-12.449-8.33-28.82-44.418 12.838c-6.536-13.078-15.668-24.904-27.132-34.889-2.292-1.996-4.66-3.884-7.09-5.675l20.204-39.831-26.755-13.572-19.785 39.004c-13.516-5.172-28.064-7.74-42.921-7.426-3.959.081-7.887.372-11.774.853l-15.627-43.809-28.256 10.08 14.749 41.344c-12.598 5.169-24.224 12.606-34.278 22.077-2.819 2.655-5.526 5.477-8.043 8.382-1.308 1.51-2.64 2.989-3.985 4.452l-27.576-31.751-22.65 19.672 28.29 32.574c-15.119 12.085-31.81 21.679-49.632 28.513l-14.315-43.057-28.468 9.465 14.049 42.257c-19.117 5.444-36.967 14.325-52.811 26.194l-28.708-36.158-23.495 18.654 29.894 37.652c-13.095 14.204-23.395 30.428-30.611 47.954l-43.093-16.032-10.46 28.116 44.738 16.645c-2.373 11.421-3.542 23.183-3.439 35.121.055 6.442.484 12.826 1.267 19.128l-46.136 8.358 5.348 29.52 47.201-8.551c5.327 16.787 13.349 32.591 23.837 46.841l-36.862 32.541 19.854 22.49 36.939-32.609c13.008 12.189 27.675 22.017 43.491 29.263l-14.601 46.229 28.607 9.035 14.331-45.374c12.409 3.075 25.27 4.713 38.389 4.805.395.003.787.004 1.181.004 4.723 0 9.413-.211 14.064-.606l11.234 47.282 29.188-6.936-10.838-45.615c18.297-5.051 35.545-13.299 51.089-24.452l33.612 34.298 21.426-20.998-32.326-32.985c13.78-14.32 24.791-30.989 32.52-49.118l45.6 12.023 7.648-29.008-43.851-11.562c5.494-18.844 13.217-36.304 22.936-51.998l36.938 26.119 17.32-24.495-36.493-25.804c5.693-6.557 11.813-12.66 18.344-18.259 2.208-1.893 4.373-3.897 6.432-5.958 5.667-5.667 10.668-11.897 14.961-18.551l36.921 21.902 15.306-25.801-39.394-23.369c3.865-12.189 5.693-25.047 5.246-38.021zm-54.254 62.625c-1.521 1.521-3.117 2.999-4.744 4.395-33.687 28.881-57.977 68.901-70.243 115.734-5.941 22.688-17.902 43.499-34.589 60.187-25.38 25.38-59.093 39.219-95.023 38.967-35.888-.252-69.444-14.576-94.488-40.333-23.814-24.492-37.093-57.023-37.39-91.6-.296-34.579 12.426-67.321 35.825-92.196 17.799-18.923 40.444-32.131 65.489-38.196 43.877-10.625 83.17-34.822 113.633-69.976 1.857-2.144 3.856-4.227 5.94-6.189 15.779-14.862 36.371-22.342 56.968-22.342 19.444 0 38.892 6.667 54.292 20.081 17.644 15.367 27.801 36.631 28.601 59.876.802 23.265-7.818 45.139-24.271 61.592z"/><path d="m262.956 247.472c-29.965-29.965-78.722-29.965-108.688 0-29.965 29.966-29.965 78.723 0 108.688 14.982 14.982 34.663 22.475 54.344 22.475s39.361-7.492 54.344-22.475c29.965-29.966 29.965-78.722 0-108.688zm-21.213 87.475c-18.268 18.268-47.993 18.268-66.261 0-18.269-18.269-18.269-47.994 0-66.263 9.134-9.134 21.133-13.701 33.131-13.701s23.997 4.567 33.13 13.701c18.268 18.269 18.268 47.995 0 66.263z"/><path d="m344.384 115.867c-28.04 0-50.851 22.812-50.851 50.852 0 28.039 22.812 50.851 50.851 50.851s50.851-22.812 50.851-50.851c0-28.04-22.812-50.852-50.851-50.852zm0 71.702c-11.498 0-20.851-9.354-20.851-20.851 0-11.498 9.354-20.852 20.851-20.852s20.851 9.354 20.851 20.852-9.354 20.851-20.851 20.851z"/></g></svg>