<?xml version="1.0" encoding="iso-8859-1"?>
<!-- Generator: Adobe Illustrator 19.0.0, SVG Export Plug-In . SVG Version: 6.00 Build 0)  -->
<svg version="1.1" id="Capa_1" xmlns="http://www.w3.org/2000/svg" xmlns:xlink="http://www.w3.org/1999/xlink" x="0px" y="0px"
	 viewBox="0 0 489.9 489.9" style="enable-background:new 0 0 489.9 489.9;" xml:space="preserve">
<g>
	<g>
		<g>
			<circle cx="245.15" cy="76.2" r="76.2"/>
			<path d="M151.45,301.7v39.2h47.4l-33-144.2c-57.5,14.4-97.2,49.4-97.2,118.2v85.5c0,7.4,5.8,13.2,13.2,13.2h133.3l-12.1-53.3
				h-77.7C128.95,337,136.35,321.1,151.45,301.7z"/>
			<path d="M235.85,414h22.9c14.8,0,26.8-12.1,26.8-26.8s-12.1-26.8-26.8-26.8h-35.4L235.85,414z"/>
			<polygon points="203.15,360.7 223.35,360.7 219.15,340.9 198.85,340.9 			"/>
			<path d="M245.15,188.1c-21,0-41.2,1.6-59.9,4.7l33.9,148.1h39.6c25.7,0,46.3,21,46.3,46.3c0,25.7-21,46.3-46.3,46.3h-107.3v56.4
				h187.4V301.7c24.1,31.5,28.4,128.3,28.8,188.1h53.6V314.9C421.25,217.7,342.35,188.1,245.15,188.1z"/>
		</g>
	</g>
</g>
<g>
</g>
<g>
</g>
<g>
</g>
<g>
</g>
<g>
</g>
<g>
</g>
<g>
</g>
<g>
</g>
<g>
</g>
<g>
</g>
<g>
</g>
<g>
</g>
<g>
</g>
<g>
</g>
<g>
</g>
</svg>
