<svg id="Capa_1" enable-background="new 0 0 512 512" height="512" viewBox="0 0 512 512" width="512" xmlns="http://www.w3.org/2000/svg"><g><path d="m505.987 15.502c-1.492-4.473-5.013-7.996-9.489-9.487-44.352-14.791-93.098-1.762-124.12 33.155l-70.589 78.712-61.619-36.971 7.632-7.632c5.863-5.863 5.863-15.35 0-21.213s-15.35-5.863-21.213 0l-12.936 12.936-96.021-57.61c-5.903-3.543-13.455-2.62-18.323 2.249l-42.425 42.425c-5.863 5.863-5.863 15.35 0 21.213l150.533 150.533-91.298 107.23-53.945-17.982c-5.396-1.793-11.332-.394-15.35 3.624l-42.427 42.427c-3.408 3.408-4.971 8.245-4.206 13.01.787 4.744 3.761 8.857 8.112 11.01l80.378 40.19 40.19 80.378c2.038 4.135 6.074 7.297 11.01 8.11 4.764.767 9.602-.797 13.01-4.204l42.426-42.427c4.019-4.019 5.418-9.954 3.625-15.35l-17.981-53.945 107.228-91.299 150.533 150.533c5.863 5.863 15.352 5.863 21.213 0l42.427-42.426c4.869-4.869 5.79-12.42 2.249-18.323l-57.61-96.021 12.935-12.936c5.863-5.861 5.863-15.35 0-21.213-5.861-5.863-15.35-5.863-21.213 0l-7.632 7.632-36.969-61.617 78.669-70.549c34.957-31.064 47.987-79.809 33.196-124.162z"/></g></svg>