<svg id="Capa_1" enable-background="new 0 0 512 512" height="512" viewBox="0 0 512 512" width="512" xmlns="http://www.w3.org/2000/svg"><g><path d="m362 92c-33.08 0-60 26.92-60 60v51.07l78.51 38.93h56.49c8.28 0 15 6.72 15 15s-6.72 15-15 15h-41.7l12 60h29.7c8.28 0 15 6.72 15 15s-6.72 15-15 15h-23.7l8.41 42.06c1.62 8.12-3.64 16.02-11.77 17.65-8.07 1.61-16.01-3.59-17.65-11.77-3.189-15.945-25.473-127.348-28.56-142.78l-61.73-30.61v110.78c0 84.35 63.91 164.67 165 164.67.1-.045 45-1.345 45-45v-180c0-89.729-60.447-195-150-195z"/><path d="m75 242h56.49l78.51-38.93v-51.07c0-33.065-26.919-60-60-60-89.14 0-150 104.85-150 195v180c0 24.74 20.52 44.92 45 45 101.78 0 165-80.94 165-164.67v-110.78l-61.73 30.61c-3.053 15.265-25.391 126.938-28.56 142.78-1.63 8.13-9.54 13.39-17.65 11.77-8.12-1.63-13.39-9.53-11.77-17.65l8.41-42.06h-23.7c-8.28 0-15-6.72-15-15s6.72-15 15-15h29.7l12-60h-41.7c-8.28 0-15-6.72-15-15s6.72-15 15-15z"/><path d="m271 187.7v-172.7c0-8.284-6.716-15-15-15s-15 6.716-15 15v172.7l-31 15.37v33.48l46-22.81 46 22.81v-33.48z"/></g></svg>