<svg id="Capa_1" enable-background="new 0 0 512.001 512.001" height="512" viewBox="0 0 512.001 512.001" width="512" xmlns="http://www.w3.org/2000/svg"><g><path d="m89.249 507.604c5.863 5.863 15.352 5.863 21.215 0 5.861-5.861 5.861-15.35 0-21.213l-10.607-10.605 57.729-57.731-63.638-63.638-57.73 57.729-10.605-10.607c-5.863-5.863-15.352-5.863-21.215 0-5.861 5.863-5.861 15.352 0 21.213z"/><path d="m359.111 195.316 31.82 31.82c2.818-2.818 5.069-6.628 5.069-10.607v-27.427l-73.1-72.1h-27.429c-3.977 0-7.789 1.575-10.605 4.393l-127.28 126.955 106.066 106.068 21.215-21.215-31.82-31.82c-5.863-5.861-5.863-15.35 0-21.213s15.35-5.863 21.213 0l31.82 31.82 21.213-21.213-31.82-31.82c-5.861-5.863-5.861-15.352 0-21.213 5.863-5.863 15.352-5.863 21.215 0l31.818 31.82 21.215-21.215-31.82-31.82c-5.863-5.861-5.863-15.35 0-21.213s15.347-5.863 21.21 0z"/><path d="m507.604 4.397c-5.863-5.863-15.352-5.863-21.215 0l-76.199 76.2c-16.712-7.925-37.269-5.156-51.079 8.654l-10.607 10.607 63.64 63.638 10.607-10.605c13.81-13.81 16.578-34.367 8.652-51.079l76.201-76.201c5.862-5.862 5.862-15.351 0-21.214z"/><path d="m242.438 375.629-106.065-106.066-10.607 10.605c-5.852 5.852-15.361 5.852-21.213 0-5.863-5.863-15.35-5.863-21.213 0s-5.863 15.352 0 21.213l127.278 127.28c5.863 5.863 15.352 5.863 21.215 0 5.861-5.863 5.861-15.352 0-21.213-5.854-5.854-5.854-15.363 0-21.215z"/></g></svg>